<svg width="512" height="512" xmlns="http://www.w3.org/2000/svg">
 <!--! Font Awesome Pro 6.1.1 by @fontawesome - https://fontawesome.com License - https://fontawesome.com/license (Commercial License) Copyright 2022 Fonticons, Inc. -->

 <g>
  <title>Layer 1</title>
  <path fill="#B6C7EA" stroke="#ffffff" id="svg_1" d="m-6,163c0,-35.35 28.65,-64 64,-64l384,0c35.3,0 64,28.65 64,64l0,256c0,35.3 -28.7,64 -64,64l-384,0c-35.35,0 -64,-28.7 -64,-64l0,-256zm48,0l0,22.1l172.5,141.6c20.6,17 50.4,17 71,0l172.5,-141.6l0,-23c0,-7.9 -7.2,-16 -16,-16l-384,0c-8.84,0 -16,8.1 -16,16l0,0.9zm0,84.2l0,171.8c0,8.8 7.16,16 16,16l384,0c8.8,0 16,-7.2 16,-16l0,-171.8l-142,116.6c-38.4,31.5 -93.6,31.5 -132.9,0l-141.1,-116.6z"/>
 </g>
</svg>